<svg width="56" height="56" viewBox="0 0 56 56" fill="none" xmlns="http://www.w3.org/2000/svg">
<g id="GithubLogo" clip-path="url(#clip0_1_332)">
<path id="Vector" d="M45.5678 16.555C46.1027 14.8295 46.2743 13.0119 46.0717 11.2168C45.8692 9.42164 45.2969 7.68796 44.3909 6.12503C44.2373 5.85894 44.0163 5.63798 43.7502 5.48439C43.4841 5.33079 43.1823 5.24996 42.875 5.25003C40.8367 5.24576 38.8256 5.71829 37.0024 6.62987C35.1793 7.54145 33.5946 8.8668 32.375 10.5H27.125C25.9054 8.8668 24.3207 7.54145 22.4976 6.62987C20.6744 5.71829 18.6633 5.24576 16.625 5.25003C16.3177 5.24996 16.0159 5.33079 15.7498 5.48439C15.4837 5.63798 15.2627 5.85894 15.1091 6.12503C14.2031 7.68796 13.6308 9.42164 13.4283 11.2168C13.2257 13.0119 13.3973 14.8295 13.9322 16.555C12.851 18.4422 12.2718 20.5752 12.25 22.75V24.5C12.2537 27.461 13.3286 30.3207 15.2762 32.551C17.2239 34.7813 19.9127 36.2316 22.8463 36.6341C21.6488 38.1664 20.9989 40.0554 21 42V43.75H15.75C14.3576 43.75 13.0223 43.1969 12.0377 42.2123C11.0531 41.2278 10.5 39.8924 10.5 38.5C10.5 37.351 10.2737 36.2131 9.83395 35.1515C9.39422 34.09 8.7497 33.1254 7.93718 32.3128C7.12467 31.5003 6.16008 30.8558 5.09848 30.4161C4.03688 29.9764 2.89907 29.75 1.75 29.75C1.28587 29.75 0.840752 29.9344 0.512563 30.2626C0.184374 30.5908 0 31.0359 0 31.5C0 31.9642 0.184374 32.4093 0.512563 32.7375C0.840752 33.0657 1.28587 33.25 1.75 33.25C3.14239 33.25 4.47774 33.8032 5.46231 34.7877C6.44688 35.7723 7 37.1076 7 38.5C7 40.8207 7.92187 43.0463 9.56282 44.6872C11.2038 46.3282 13.4294 47.25 15.75 47.25H21V50.75C21 51.2142 21.1844 51.6593 21.5126 51.9875C21.8408 52.3157 22.2859 52.5 22.75 52.5C23.2141 52.5 23.6592 52.3157 23.9874 51.9875C24.3156 51.6593 24.5 51.2142 24.5 50.75V42C24.5 40.6076 25.0531 39.2723 26.0377 38.2877C27.0223 37.3032 28.3576 36.75 29.75 36.75C31.1424 36.75 32.4777 37.3032 33.4623 38.2877C34.4469 39.2723 35 40.6076 35 42V50.75C35 51.2142 35.1844 51.6593 35.5126 51.9875C35.8408 52.3157 36.2859 52.5 36.75 52.5C37.2141 52.5 37.6592 52.3157 37.9874 51.9875C38.3156 51.6593 38.5 51.2142 38.5 50.75V42C38.5011 40.0554 37.8512 38.1664 36.6537 36.6341C39.5873 36.2316 42.2761 34.7813 44.2238 32.551C46.1714 30.3207 47.2463 27.461 47.25 24.5V22.75C47.2282 20.5752 46.649 18.4422 45.5678 16.555ZM43.75 24.5C43.75 26.8207 42.8281 29.0463 41.1872 30.6872C39.5462 32.3282 37.3206 33.25 35 33.25H24.5C22.1794 33.25 19.9538 32.3282 18.3128 30.6872C16.6719 29.0463 15.75 26.8207 15.75 24.5V22.75C15.7715 21.0001 16.2954 19.2932 17.2594 17.8325C17.4391 17.5957 17.5555 17.3169 17.5976 17.0226C17.6397 16.7283 17.6061 16.4281 17.5 16.1503C17.0442 14.9748 16.8248 13.7208 16.8545 12.4603C16.8841 11.1998 17.1622 9.95755 17.6728 8.80472C19.105 8.95879 20.4842 9.43322 21.708 10.1928C22.9319 10.9525 23.9691 11.9778 24.7428 13.1928C24.9005 13.4394 25.1174 13.6425 25.3739 13.7835C25.6303 13.9245 25.918 13.9989 26.2106 14H33.2872C33.5809 14 33.87 13.9261 34.1276 13.785C34.3853 13.644 34.6033 13.4403 34.7616 13.1928C35.5351 11.9777 36.5723 10.9523 37.7962 10.1926C39.0201 9.433 40.3993 8.95863 41.8316 8.80472C42.3415 9.95784 42.6188 11.2002 42.6477 12.4607C42.6766 13.7212 42.4565 14.9751 42 16.1503C41.8942 16.4254 41.8588 16.7226 41.897 17.0148C41.9352 17.3071 42.0458 17.5851 42.2188 17.8238C43.1923 19.2844 43.724 20.9949 43.75 22.75V24.5Z" fill="white"/>
</g>
<defs>
<clipPath id="clip0_1_332">
<rect width="56" height="56" fill="white"/>
</clipPath>
</defs>
</svg>
