<svg width="56" height="57" viewBox="0 0 56 57" fill="none" xmlns="http://www.w3.org/2000/svg">
<g id="Frame">
<path id="Vector" d="M11.7107 17.4534C14.49 17.4534 16.7431 15.2003 16.7431 12.421C16.7431 9.64174 14.49 7.38867 11.7107 7.38867C8.93141 7.38867 6.67834 9.64174 6.67834 12.421C6.67834 15.2003 8.93141 17.4534 11.7107 17.4534Z" fill="white"/>
<path id="Vector_2" d="M21.4948 21.2667V49.1862H30.1634V35.3794C30.1634 31.7362 30.8488 28.208 35.366 28.208C39.8211 28.208 39.8763 32.3733 39.8763 35.6094V49.1885H48.5495V33.8775C48.5495 26.3565 46.9303 20.5767 38.1398 20.5767C33.9193 20.5767 31.0903 22.8927 29.9334 25.0846H29.8161V21.2667H21.4948ZM7.36829 21.2667H16.0507V49.1862H7.36829V21.2667Z" fill="white"/>
</g>
</svg>
